HIERARCHY
ROOT Hips
{
	OFFSET 0.00000 0.00000 0.00000
	CHANNELS 6 Xposition Yposition Zposition Zrotation Yrotation Xrotation 
	JOINT LHipJoint
	{
		OFFSET 0 0 0
		CHANNELS 3 Zrotation Yrotation Xrotation
		JOINT LeftUpLeg
		{
			OFFSET 1.30186 -1.90722 0.65024
			CHANNELS 3 Zrotation Yrotation Xrotation
			JOINT LeftLeg
			{
				OFFSET 2.56413 -7.04489 0.00000
				CHANNELS 3 Zrotation Yrotation Xrotation
				JOINT LeftFoot
				{
					OFFSET 2.79321 -7.67428 0.00000
					CHANNELS 3 Zrotation Yrotation Xrotation
					JOINT LeftToeBase
					{
						OFFSET 0.15723 -0.43198 2.08537
						CHANNELS 3 Zrotation Yrotation Xrotation
						End Site
						{
							OFFSET 0.00000 -0.00000 1.07411
						}
					}
				}
			}
		}
	}
	JOINT RHipJoint
	{
		OFFSET 0 0 0
		CHANNELS 3 Zrotation Yrotation Xrotation
		JOINT RightUpLeg
		{
			OFFSET -1.28627 -1.90723 0.65024
			CHANNELS 3 Zrotation Yrotation Xrotation
			JOINT RightLeg
			{
				OFFSET -2.56567 -7.04913 0.00000
				CHANNELS 3 Zrotation Yrotation Xrotation
				JOINT RightFoot
				{
					OFFSET -2.75597 -7.57198 0.00000
					CHANNELS 3 Zrotation Yrotation Xrotation
					JOINT RightToeBase
					{
						OFFSET -0.17500 -0.48081 2.22901
						CHANNELS 3 Zrotation Yrotation Xrotation
						End Site
						{
							OFFSET -0.00000 -0.00000 1.14762
						}
					}
				}
			}
		}
	}
	JOINT LowerBack
	{
		OFFSET 0 0 0
		CHANNELS 3 Zrotation Yrotation Xrotation
		JOINT Spine
		{
			OFFSET -0.04522 2.07467 -0.16566
			CHANNELS 3 Zrotation Yrotation Xrotation
			JOINT Spine1
			{
				OFFSET -0.01178 2.08825 -0.05393
				CHANNELS 3 Zrotation Yrotation Xrotation
				JOINT Neck
				{
					OFFSET 0 0 0
					CHANNELS 3 Zrotation Yrotation Xrotation
					JOINT Neck1
					{
						OFFSET -0.05182 1.80489 0.16014
						CHANNELS 3 Zrotation Yrotation Xrotation
						JOINT Head
						{
							OFFSET 0.14739 1.78840 -0.33342
							CHANNELS 3 Zrotation Yrotation Xrotation
							End Site
							{
								OFFSET 0.04364 1.83899 -0.13460
							}
						}
					}
				}
				JOINT LeftShoulder
				{
					OFFSET 0 0 0
					CHANNELS 3 Zrotation Yrotation Xrotation
					JOINT LeftArm
					{
						OFFSET 3.01264 1.29090 -0.06579
						CHANNELS 3 Zrotation Yrotation Xrotation
						JOINT LeftForeArm
						{
							OFFSET 5.55680 -0.00000 0.00000
							CHANNELS 3 Zrotation Yrotation Xrotation
							JOINT LeftHand
							{
								OFFSET 3.63979 -0.00000 -0.00000
								CHANNELS 3 Zrotation Yrotation Xrotation
								JOINT LeftFingerBase
								{
									OFFSET 0 0 0
									CHANNELS 3 Zrotation Yrotation Xrotation
									JOINT LeftHandIndex1
									{
										OFFSET 0.56942 -0.00000 -0.00000
										CHANNELS 3 Zrotation Yrotation Xrotation
										End Site
										{
											OFFSET 0.45908 -0.00000 -0.00000
										}
									}
								}
								JOINT LThumb
								{
									OFFSET 0 0 0
									CHANNELS 3 Zrotation Yrotation Xrotation
									End Site
									{
										OFFSET 0.46609 -0.00000 0.46609
									}
								}
							}
						}
					}
				}
				JOINT RightShoulder
				{
					OFFSET 0 0 0
					CHANNELS 3 Zrotation Yrotation Xrotation
					JOINT RightArm
					{
						OFFSET -3.15796 1.37283 -0.36748
						CHANNELS 3 Zrotation Yrotation Xrotation
						JOINT RightForeArm
						{
							OFFSET -5.34339 -0.00000 0.00000
							CHANNELS 3 Zrotation Yrotation Xrotation
							JOINT RightHand
							{
								OFFSET -3.65101 -0.00000 -0.00000
								CHANNELS 3 Zrotation Yrotation Xrotation
								JOINT RightFingerBase
								{
									OFFSET 0 0 0
									CHANNELS 3 Zrotation Yrotation Xrotation
									JOINT RightHandIndex1
									{
										OFFSET -0.69425 -0.00000 -0.00000
										CHANNELS 3 Zrotation Yrotation Xrotation
										End Site
										{
											OFFSET -0.55972 -0.00000 -0.00000
										}
									}
								}
								JOINT RThumb
								{
									OFFSET 0 0 0
									CHANNELS 3 Zrotation Yrotation Xrotation
									End Site
									{
										OFFSET -0.56827 -0.00000 0.56827
									}
								}
							}
						}
					}
				}
			}
		}
	}
}
MOTION
Frames: 12
Frame Time: 0.166667
0.00 0.00 0.00 0 0 0 0 0 0 -21 0 0 0 0 0 0 0 0 0 0 0 0 0 0 21 0 0 0 0 0 0 0 0 0 0 0 0 0 0 0 0 0 0 0 0 0 0 -16 0 0 21 0 0 11 0 0 0 -8 0 0 0 0 0 0 0 0 0 0 0 0 0 0 0 0 0 0 0 0 8 0 0 0 0 0 0 0 0 0 0 0 0 0 0 0 0 0
0.00 0.00 0.00 -177.9110 4.1436 -175.7670 0.0000 0.0000 0.0000 -12.6219 -18.0856 -29.2295 1.8031 8.4432 24.0687 -0.6104 13.8508 -7.4524 0.0304 -1.1252 -3.0933 0.0000 0.0000 0.0000 25.4856 5.1017 23.3119 -0.8565 -5.9019 16.5000 0.1161 6.7894 -0.8439 -0.0136 -0.7543 2.0729 0.8231 5.1034 -4.6338 -2.0229 6.8531 -0.6938 -2.0746 3.4549 2.2141 -3.0017 -4.0846 -8.5710 3.3309 -5.9418 14.2723 1.0697 -2.9286 5.9156 -0.0000 -0.0000 0.0000 -88.6507 24.8193 -25.5249 5.6255 -9.6360 -0.4745 -0.0000 -0.0000 27.2107 19.1202 19.1666 6.4934 -7.1250 0.0000 -0.0000 -9.0727 49.9595 -1.1173 -0.0000 -0.0000 0.0000 78.2346 57.3263 -2.6637 -9.5578 16.0449 -1.3501 0.0000 0.0000 8.1586 -17.2709 32.5227 -9.4895 7.1250 -0.0000 -0.0000 8.2240 3.4443 8.7921
0.00 0.00 0.00 -180.9430 1.5403 -176.2710 0.0000 0.0000 0.0000 -19.4227 -12.9850 -28.5535 2.2986 9.4621 27.2517 -0.0793 4.9919 -2.0531 0.1306 -2.3296 -6.4174 0.0000 0.0000 0.0000 21.9188 5.8213 14.5224 -3.3389 -11.2244 33.0406 -0.3776 4.3771 14.0511 -0.7115 -5.3907 15.0263 -1.9484 3.9795 -3.1565 -2.9343 5.5446 0.0702 -1.6551 2.8088 1.9452 -3.7478 -4.5593 -9.3901 4.0694 -6.3404 12.2269 1.3933 -3.0548 5.4772 -0.0000 0.0000 0.0000 -88.3080 14.1334 -22.6289 3.4670 -5.9796 -0.1811 -0.0000 -0.0000 31.5188 22.3795 22.9873 9.1350 -7.1250 0.0000 -0.0000 -7.1138 54.4836 -1.6639 -0.0000 0.0000 0.0000 82.5023 47.0638 4.1722 -11.5130 19.0702 -1.9402 0.0000 0.0000 0.1418 -21.0298 31.8985 -11.4837 7.1250 -0.0000 -0.0000 6.0274 3.5505 6.4239
0.00 0.00 0.00 -182.0590 2.5016 -176.6040 0.0000 0.0000 0.0000 -21.6245 -13.6165 -25.4996 2.4609 9.7665 28.2239 -0.0547 4.9210 -4.6179 0.0033 0.3736 1.0265 0.0000 0.0000 0.0000 19.2083 8.9231 5.4674 -6.8461 -15.2009 48.2897 -0.2077 5.2037 12.0882 -0.3044 -3.5470 9.8057 -2.2307 3.8053 -2.2680 -2.9194 5.2916 0.2195 -1.5567 2.6830 1.5705 -3.3941 -3.9741 -9.7392 2.3240 -5.3401 12.5560 0.8637 -2.6606 5.5410 -0.0000 0.0000 0.0000 -89.9667 6.5977 -17.0978 2.9297 -5.0590 -0.1295 -0.0000 -0.0000 29.7180 24.5607 22.5616 9.9453 -7.1250 0.0000 -0.0000 -4.6940 54.4700 -1.0940 -0.0000 0.0000 0.0000 84.3364 40.9009 5.7709 -10.3491 17.2838 -1.5771 0.0000 0.0000 2.8959 -17.8449 30.5449 -9.2918 7.1250 -0.0000 -0.0000 7.6680 1.5644 7.9452
0.00 0.00 0.00 -186.3410 1.6662 -178.3690 0.0000 0.0000 0.0000 -28.6175 -11.4627 -19.4754 2.4137 9.6793 27.9445 0.1093 2.0418 -7.3487 0.0116 0.6950 1.9099 0.0000 0.0000 0.0000 10.4378 8.8010 -11.1544 -10.5841 -17.7255 61.4232 -0.0379 0.4814 -3.5350 -0.3936 -4.0285 11.1569 -7.0309 2.0477 0.1100 -2.7805 2.9402 0.6094 1.0706 1.5224 0.3710 -2.4286 -2.3608 -10.0193 0.8887 -3.1702 13.8138 0.4156 -1.6876 5.8797 -0.0000 0.0000 0.0000 -92.4703 -3.6701 0.5958 6.3745 -10.8852 -0.6080 -0.0000 -0.0000 13.3085 23.1422 16.7474 7.0211 -7.1250 0.0000 -0.0000 -4.5541 48.0478 -0.3431 -0.0000 0.0000 0.0000 88.1486 30.0286 -0.2376 -8.2720 13.9928 -1.0169 0.0000 0.0000 16.6593 -18.8814 32.5179 -10.4177 7.1250 -0.0000 -0.0000 7.3204 3.7444 7.8455
0.00 0.00 0.00 -188.4050 1.6133 -178.8300 0.0000 0.0000 0.0000 -33.0211 -5.4871 -10.8430 2.0862 9.0434 25.9312 0.4715 -2.2220 -12.3957 0.0908 -1.9430 -5.3481 0.0000 0.0000 0.0000 0.3646 20.7701 -39.0800 -6.8491 -15.2035 48.3013 -0.5630 -0.2944 -14.2867 -0.1876 -2.7894 7.6930 -10.7095 -0.3199 1.3539 -1.7401 -0.3745 0.8109 4.1933 -0.1495 0.1561 -1.1568 -1.2938 -10.3131 -1.6157 -0.9800 15.2959 -0.3922 -0.5413 6.3444 0.0000 -0.0000 0.0000 -88.0868 -34.9097 17.3837 8.7841 -14.8157 -1.1443 -0.0000 0.0000 -3.4960 20.7977 13.8398 5.1914 -7.1250 0.0000 -0.0000 -6.1414 44.6555 0.0524 0.0000 -0.0000 0.0000 90.3962 0.9387 -2.6341 -8.0511 13.6356 -0.9641 0.0000 0.0000 16.6456 -17.4569 30.7266 -9.1281 7.1250 -0.0000 -0.0000 7.9107 1.6774 8.2168
0.00 0.00 0.00 -188.9150 1.2202 -177.1260 0.0000 0.0000 0.0000 -33.9633 -2.7064 -1.7851 0.5495 4.7489 13.1937 0.3222 -0.0786 -10.6951 0.2454 -3.1876 -8.8016 0.0000 0.0000 0.0000 -8.1001 27.6912 -49.3202 -3.1244 -10.8937 31.9222 0.0411 -7.3848 -9.5506 -0.3158 -3.6123 9.9883 -11.6501 -1.5053 1.9592 -1.3537 -2.1087 0.2599 5.1517 -0.9704 -0.4502 -0.8163 -0.4050 -10.9319 -2.7634 0.3861 15.4451 -0.7000 0.0415 6.5071 0.0000 0.0000 0.0000 -79.9363 -49.0797 17.0994 10.5604 -17.6114 -1.6405 -0.0000 0.0000 -10.0578 20.5736 18.0162 6.6218 -7.1250 0.0000 -0.0000 -7.3321 48.9968 -0.7263 0.0000 0.0000 0.0000 90.7706 -12.1028 -25.6247 -5.2496 9.0050 -0.4137 0.0000 0.0000 41.2779 -17.5780 31.9572 -9.5186 7.1250 -0.0000 -0.0000 7.9836 2.9346 8.4628
0.00 0.00 0.00 -188.3800 2.8306 -176.9050 0.0000 0.0000 0.0000 -33.1850 3.9503 10.5387 0.0000 -0.0000 -0.0000 0.2474 0.7792 -9.7106 0.2400 -3.1528 -8.7044 0.0000 0.0000 0.0000 -11.4744 32.1903 -55.8022 -2.4983 -9.8349 28.4436 0.2105 -9.6157 -9.0424 -0.6074 -4.9886 13.8762 -11.0943 -2.1420 2.8769 -0.5433 -3.0466 1.0302 5.7180 -1.5137 0.0192 -0.6986 0.8903 -10.9630 -3.8188 2.1686 13.7041 -0.9018 0.8232 5.9945 -0.0000 -0.0000 0.0000 -55.1750 -64.0858 -0.1896 11.7219 -19.3862 -2.0090 -0.0000 0.0000 -16.7797 20.1710 18.3341 6.5915 -7.1250 0.0000 -0.0000 -7.8083 49.2652 -0.8258 -0.0000 -0.0000 0.0000 90.7864 -25.1599 -25.2895 -3.6547 6.3004 -0.2012 0.0000 0.0000 33.9257 -17.7565 26.1816 -8.0421 7.1250 -0.0000 -0.0000 7.2814 -2.8651 6.9656
0.00 0.00 0.00 -185.0590 2.3231 -174.2280 0.0000 0.0000 0.0000 -27.0129 3.4891 12.6831 1.5980 7.9731 22.6323 0.0207 0.4033 2.6010 0.5951 -4.9385 -13.7331 0.0000 0.0000 0.0000 8.7252 23.5680 -29.7830 -2.9613 -10.6321 31.0489 -0.0060 -1.6089 -2.8403 -0.0662 -1.6599 4.5667 -6.1269 -1.7315 -1.5465 0.8908 -2.2156 -0.8784 4.3125 -1.0873 0.2295 -0.4216 0.6250 -10.0867 -5.3456 2.1679 14.5571 -1.4300 0.7736 6.1352 0.0000 0.0000 0.0000 -76.2154 -47.4652 19.4795 20.0103 -30.6548 -5.5366 -0.0000 0.0000 -23.9527 17.4974 17.6926 5.4727 -7.1250 0.0000 -0.0000 -10.1685 48.2079 -0.8125 0.0000 0.0000 0.0000 89.6141 -14.7439 -23.6779 -3.0722 5.3035 -0.1423 0.0000 0.0000 34.0478 -18.2072 27.2018 -8.5509 7.1250 -0.0000 -0.0000 7.1056 -1.7542 6.9388
0.00 0.00 0.00 -184.0540 1.1251 -174.7470 0.0000 0.0000 0.0000 -24.8195 0.0984 5.1504 4.2049 12.4281 37.2638 0.1963 -0.7664 8.6833 0.5036 -4.5495 -12.6279 0.0000 0.0000 0.0000 11.5353 23.6967 -26.1979 -3.1395 -10.9176 32.0023 -0.0395 -1.4315 -4.5708 -0.3570 -3.8386 10.6229 -5.7974 -2.0628 -1.4082 1.1341 -2.6730 -0.6657 4.3668 -1.3311 0.4230 -0.9387 0.7168 -9.8692 -3.6906 2.1562 15.4023 -0.8214 0.8605 6.3400 0.0000 -0.0000 0.0000 -81.5371 -39.2854 20.6586 19.2064 -29.6743 -5.1326 -0.0000 0.0000 -25.3239 27.4547 18.3698 9.2991 -7.1250 0.0000 -0.0000 -0.6625 50.4953 -0.0897 0.0000 -0.0000 0.0000 89.4806 -6.2149 -22.8673 -3.3402 5.7627 -0.1682 0.0000 0.0000 37.3886 -19.7219 26.8784 -9.2059 7.1250 -0.0000 -0.0000 6.1683 -1.8231 6.0042
0.00 0.00 0.00 -179.5590 0.4394 -176.0530 0.0000 0.0000 0.0000 -17.3228 -2.4983 -9.1535 8.3870 16.3966 53.9450 0.0462 -1.6334 -3.8199 0.7154 -5.4054 -15.0685 0.0000 0.0000 0.0000 19.6297 22.8862 -19.2765 -2.9590 -10.6284 31.0367 -0.1314 -1.7776 -7.7439 -0.7411 -5.4995 15.3389 -1.4408 -1.1413 -0.3118 1.5937 -1.4982 -0.6148 2.4403 -0.7320 -0.3752 -1.2492 -0.3342 -10.0490 -2.5780 0.8206 17.8021 -0.5241 0.3148 7.1147 -0.0000 -0.0000 0.0000 -87.6750 -30.4960 19.1278 12.1258 -19.9930 -2.1451 -0.0000 0.0000 -10.5261 21.0242 20.0482 7.5060 -7.1250 0.0000 -0.0000 -7.4877 51.1820 -1.1458 -0.0000 -0.0000 0.0000 90.7305 4.0412 -8.3982 -7.2144 12.2715 -0.7766 0.0000 0.0000 21.5376 -17.6987 31.9423 -9.5830 7.1250 -0.0000 -0.0000 7.9137 2.9419 8.3883
0.00 0.00 0.00 -177.3460 -0.6106 -177.3820 0.0000 0.0000 0.0000 -6.7773 -20.4556 -39.3410 4.9862 13.3683 40.7632 0.6875 -4.1556 -14.8085 1.0959 -6.6523 -18.6892 0.0000 0.0000 0.0000 26.8632 17.2642 -7.1490 -2.5624 -9.9505 28.8167 -0.6201 -0.7529 -15.1684 -1.1469 -6.8002 19.1249 2.1863 1.7055 2.1557 0.2653 2.3123 0.4046 -1.0140 1.1458 -0.7172 -2.6283 -2.1173 -11.8658 -0.1616 -2.7760 17.5474 0.0888 -1.6781 7.3793 -0.0000 -0.0000 0.0000 -92.3934 1.0324 8.8909 9.4338 -15.8491 -1.3161 -0.0000 -0.0000 1.2072 23.0673 19.7160 8.1756 -7.1250 0.0000 -0.0000 -5.3626 51.1841 -0.8189 -0.0000 -0.0000 0.0000 83.6419 39.0489 10.0919 -13.7719 22.4077 -2.7406 0.0000 -0.0000 -4.3045 -19.6321 29.6681 -10.0132 7.1250 -0.0000 -0.0000 6.5350 1.0070 6.6922
